:SAMPLES-PER-SECOND 30
:FULLY-SPECIFIED
:DEGREES
381
root  5.30222 39.5097 -66.7409 179.349 4.34396 -178.422
RightUpLeg  -6.3826 0.472637 4.27615
RightLeg  11.0218 2.16221 -1.44984
RightFoot  -4.06834 0.0323133 -0.323845
RightToes  -1.16415e-010 -3.18055e-015 -2.98177e-016
Spine  10.8726 -0.592614 4.70558
Spine1  0.188771 -0.387347 2.01177
HEad  -2.18037 0.959386 1.88837
LeftShoulder1  -3.88251e-019 9.70628e-020 -3.87848e-018
LeftArm  -19.8454 54.7306 -55.9901
LeftForeArm  4.13158 -17.2073 0.661671
LeftHand  -2.10205 -5.34218 23.5536
RightShoulder  5.86736 9.44852 29.0474
RightArm  18.0452 -37.3582 11.1701
RightForeArm  0.942142 28.5434 -15.3849
RightHand  -0.926484 1.08623 -16.278
LeftUpLeg  -9.03544 -4.04296 0.415917
LeftLeg  16.0864 6.2474 7.43437
LeftFoot  -4.87948 0.0697066 -1.16912
LeftToes  1.69338e-011 3.79281e-011 -2.20049e-011
382
root  5.15315 39.6624 -66.8938 179.286 4.46107 -179.247
RightUpLeg  -5.67911 0.163691 3.18192
RightLeg  9.90874 2.65344 -1.27225
RightFoot  -3.49624 0.0223516 -0.207142
RightToes  -1.16415e-010 -3.18055e-015 -2.98177e-016
Spine  9.31261 -0.452048 3.86416
Spine1  1.13807 -0.158109 0.796603
HEad  -0.996704 0.654708 1.67216
LeftShoulder1  -3.88251e-019 9.70628e-020 -3.87848e-018
LeftArm  -19.6743 54.3676 -55.0965
LeftForeArm  3.61729 -15.7092 0.367096
LeftHand  -2.15979 -5.56749 23.6806
RightShoulder  5.90001 9.48433 29.1546
RightArm  18.3907 -38.0407 10.6066
RightForeArm  0.730212 28.7646 -15.4995
RightHand  -0.980527 1.30298 -16.6818
LeftUpLeg  -7.43942 -3.04196 -0.762277
LeftLeg  13.2988 5.70916 6.25169
LeftFoot  -3.7238 0.00203612 -0.143052
LeftToes  1.69338e-011 3.79281e-011 -2.20049e-011
383
root  4.98144 39.7965 -67.0211 179.144 4.58301 -179.774
RightUpLeg  -4.76476 -0.00657836 2.35927
RightLeg  8.54924 2.99928 -1.04461
RightFoot  -2.83259 0.00324043 -0.0136749
RightToes  -1.16415e-010 -3.18055e-015 -2.98177e-016
Spine  8.1224 -0.402111 3.66074
Spine1  1.91477 0.100492 -0.706896
HEad  -0.0990463 0.266651 1.53129
LeftShoulder1  -3.88251e-019 9.70628e-020 -3.87848e-018
LeftArm  -19.3506 54.0681 -54.3062
LeftForeArm  2.65472 -14.6705 0.185908
LeftHand  -2.14374 -5.54196 23.5637
RightShoulder  5.92619 9.50931 29.2482
RightArm  18.8838 -38.2395 10.2971
RightForeArm  1.72936 28.0255 -15.1316
RightHand  -0.960994 1.30711 -16.3377
LeftUpLeg  -5.76305 -3.25342 -1.72308
LeftLeg  10.856 6.46092 5.64145
LeftFoot  -2.89306 -0.0365844 0.327164
LeftToes  1.69338e-011 3.79281e-011 -2.20049e-011
384
root  4.81718 39.9069 -67.1243 178.919 4.41437 179.847
RightUpLeg  -3.71581 -0.110249 1.70766
RightLeg  7.13455 3.02387 -0.893759
RightFoot  -2.19241 -0.0252487 0.257457
RightToes  -1.16415e-010 -3.18055e-015 -2.98177e-016
Spine  7.15356 -0.434518 3.22411
Spine1  2.80065 0.135161 -1.42288
HEad  0.166435 -0.128833 1.32251
LeftShoulder1  -3.88251e-019 9.70628e-020 -3.87848e-018
LeftArm  -19.2943 53.9493 -53.9701
LeftForeArm  1.43023 -14.3051 0.108985
LeftHand  -1.97676 -4.99153 22.9459
RightShoulder  5.91315 9.50014 29.1946
RightArm  18.9212 -37.9012 10.4817
RightForeArm  3.80879 26.3113 -14.2935
RightHand  -0.899475 1.25359 -15.4253
LeftUpLeg  -3.97227 -3.96166 -2.6161
LeftLeg  8.11967 7.3588 5.0985
LeftFoot  -2.07809 -0.0372856 0.329839
LeftToes  1.69338e-011 3.79281e-011 -2.20049e-011
385
root  4.67741 40.0092 -67.2085 178.864 4.15726 179.605
RightUpLeg  -2.76048 -0.0440849 1.27122
RightLeg  5.53575 2.78666 -0.751306
RightFoot  -1.4372 -0.0498766 0.452423
RightToes  -1.16415e-010 -3.18055e-015 -2.98177e-016
Spine  6.01908 -0.420382 2.33775
Spine1  3.95761 0.0162255 -1.22392
HEad  0.287337 -0.352472 0.766479
LeftShoulder1  -3.88251e-019 9.70628e-020 -3.87848e-018
LeftArm  -19.5557 54.1117 -54.214
LeftForeArm  0.359927 -14.5047 0.133649
LeftHand  -1.81821 -4.5072 22.214
RightShoulder  5.85369 9.46284 28.9408
RightArm  18.2108 -37.3378 11.0839
RightForeArm  5.89422 24.0448 -13.2036
RightHand  -0.866198 1.37046 -14.6135
LeftUpLeg  -2.3807 -3.93152 -3.24543
LeftLeg  5.1273 7.32765 4.22915
LeftFoot  -1.05999 -0.0364786 0.321929
LeftToes  1.69338e-011 3.79281e-011 -2.20049e-011
386
root  4.55362 40.0901 -67.2706 179.177 3.93326 179.589
RightUpLeg  -2.20252 0.132902 1.08668
RightLeg  3.94002 2.41529 -0.497178
RightFoot  -0.651427 -0.0680339 0.561965
RightToes  -1.16415e-010 -3.18055e-015 -2.98177e-016
Spine  4.74625 -0.379585 1.33238
Spine1  4.96493 -0.198083 -0.465338
HEad  -0.133158 -0.534108 0.28296
LeftShoulder1  -3.88251e-019 9.70628e-020 -3.87848e-018
LeftArm  -20.0061 54.5003 -54.8287
LeftForeArm  0.185066 -14.8011 0.205096
LeftHand  -1.80673 -4.64221 21.7782
RightShoulder  5.81415 9.44385 28.7591
RightArm  16.5489 -36.7174 11.7009
RightForeArm  7.57443 21.6761 -11.8747
RightHand  -0.871541 1.51554 -14.4027
LeftUpLeg  -1.55888 -3.63099 -3.4042
LeftLeg  2.97415 7.07931 3.34475
LeftFoot  -0.365134 -0.0152593 0.098828
LeftToes  1.69338e-011 3.79281e-011 -2.20049e-011
387
root  4.43327 40.1249 -67.2941 179.728 3.43065 179.649
RightUpLeg  -2.21106 0.110039 0.906908
RightLeg  2.99724 1.93491 -0.205409
RightFoot  -0.21421 -0.0959029 0.773698
RightToes  -1.16415e-010 -3.18055e-015 -2.98177e-016
Spine  3.81441 -0.480626 0.450443
Spine1  5.30825 -0.557283 0.455619
HEad  0.108168 -0.593605 -0.147034
LeftShoulder1  -3.88251e-019 9.70628e-020 -3.87848e-018
LeftArm  -20.3886 54.7755 -55.4414
LeftForeArm  1.08777 -14.721 0.221032
LeftHand  -1.84456 -4.9676 21.5152
RightShoulder  5.84393 9.46581 28.8799
RightArm  13.3319 -36.2623 11.9937
RightForeArm  9.85527 19.5762 -10.1441
RightHand  -0.86616 1.40928 -14.5319
LeftUpLeg  -1.69666 -3.56987 -3.44138
LeftLeg  2.15206 6.78291 2.91496
LeftFoot  -0.263979 0.0264764 -0.34028
LeftToes  1.69338e-011 3.79281e-011 -2.20049e-011
388
root  4.3156 40.1179 -67.2693 -179.873 2.49696 179.6
RightUpLeg  -2.52776 -0.170695 0.579056
RightLeg  2.96307 1.30132 -0.109617
RightFoot  -0.238738 -0.139723 1.1611
RightToes  -1.16415e-010 -3.18055e-015 -2.98177e-016
Spine  3.60567 -0.715008 -0.179828
Spine1  5.07259 -0.961008 1.19315
HEad  0.00334037 -0.961546 -0.16161
LeftShoulder1  -3.88251e-019 9.70628e-020 -3.87848e-018
LeftArm  -20.5121 54.5682 -55.9154
LeftForeArm  2.35054 -14.171 0.102859
LeftHand  -1.81301 -4.93971 21.2171
RightShoulder  5.88937 9.49176 29.0797
RightArm  9.99082 -36.4231 12.0595
RightForeArm  11.8787 17.7949 -8.81756
RightHand  -0.812394 1.05939 -14.3451
LeftUpLeg  -2.33138 -3.81576 -3.66622
LeftLeg  2.23578 6.17575 2.90297
LeftFoot  -0.357825 0.031804 -0.397033
LeftToes  1.69338e-011 3.79281e-011 -2.20049e-011
389
root  4.20703 40.0986 -67.2123 -179.887 1.59842 179.514
RightUpLeg  -2.64068 -0.374067 0.306878
RightLeg  3.245 0.645821 -0.287192
RightFoot  -0.350202 -0.179276 1.52359
RightToes  -1.16415e-010 -3.18055e-015 -2.98177e-016
Spine  3.95307 -0.820479 -0.415847
Spine1  4.8535 -1.12812 1.5437
HEad  -0.350935 -1.60561 -0.193534
LeftShoulder1  -3.88251e-019 9.70628e-020 -3.87848e-018
LeftArm  -20.5414 53.8528 -56.4619
LeftForeArm  3.16624 -13.4182 -0.126985
LeftHand  -1.79266 -4.91001 21.048
RightShoulder  5.87109 9.47808 29.0062
RightArm  7.65849 -37.282 12.1358
RightForeArm  13.1034 16.4682 -8.19606
RightHand  -0.735055 0.74009 -13.6419
LeftUpLeg  -2.81873 -4.09937 -3.95163
LeftLeg  2.73446 5.50538 3.03286
LeftFoot  -0.404548 -0.00917812 0.0328612
LeftToes  1.69338e-011 3.79281e-011 -2.20049e-011
390
root  4.11113 40.0863 -67.1536 179.8 1.2952 179.512
RightUpLeg  -2.44154 -0.333484 0.237146
RightLeg  3.32881 0.327968 -0.5533
RightFoot  -0.293146 -0.198692 1.68964
RightToes  -1.16415e-010 -3.18055e-015 -2.98177e-016
Spine  4.39938 -0.632241 -0.292655
Spine1  4.9118 -0.907989 1.48047
HEad  -0.537502 -2.26841 -0.398083
LeftShoulder1  -3.88251e-019 9.70628e-020 -3.87848e-018
LeftArm  -20.7552 53.0257 -57.132
LeftForeArm  3.3853 -12.8058 -0.31959
LeftHand  -1.87777 -5.34171 21.1251
RightShoulder  5.85756 9.48211 28.9216
RightArm  6.30852 -38.1192 12.1473
RightForeArm  14.1712 15.3464 -7.79269
RightHand  -0.683262 0.647395 -12.8755
LeftUpLeg  -2.89486 -4.16327 -4.10365
LeftLeg  3.3065 5.27524 3.14911
LeftFoot  -0.558723 -0.0395621 0.351786
LeftToes  1.69338e-011 3.79281e-011 -2.20049e-011
391
root  4.02606 40.0772 -67.1134 179.502 1.57451 179.519
RightUpLeg  -2.30374 -0.320228 0.16657
RightLeg  3.42344 0.598855 -0.688666
RightFoot  -0.275789 -0.208217 1.77136
RightToes  -1.16415e-010 -3.18055e-015 -2.98177e-016
Spine  4.73881 -0.298303 0.0437575
Spine1  4.81488 -0.434785 0.949807
HEad  0.30432 -2.67514 -0.598667
LeftShoulder1  -3.88251e-019 9.70628e-020 -3.87848e-018
LeftArm  -21.0232 52.5831 -57.5632
LeftForeArm  3.3265 -12.562 -0.332392
LeftHand  -1.96109 -5.80045 21.1259
RightShoulder  5.98508 9.60332 29.378
RightArm  5.58178 -38.2987 11.8328
RightForeArm  15.6287 13.9599 -7.18619
RightHand  -0.66509 0.687831 -12.4519
LeftUpLeg  -2.73196 -4.12726 -4.20356
LeftLeg  3.64167 5.58694 3.20035
LeftFoot  -0.810385 -0.0375272 0.330405
LeftToes  1.69338e-011 3.79281e-011 -2.20049e-011
392
root  3.9507 40.0666 -67.0906 179.351 2.01616 179.444
RightUpLeg  -2.42181 -0.523401 -0.0758128
RightLeg  3.77824 1.25052 -0.661736
RightFoot  -0.478911 -0.225489 1.93732
RightToes  -1.16415e-010 -3.18055e-015 -2.98177e-016
Spine  4.82166 -0.044293 0.263054
Spine1  4.73804 -0.0521903 0.41678
HEad  0.487461 -2.81652 -0.953777
LeftShoulder1  -3.88251e-019 9.70628e-020 -3.87848e-018
LeftArm  -21.3522 52.6237 -57.8265
LeftForeArm  3.1133 -12.8535 -0.220619
LeftHand  -1.91143 -5.64973 20.8896
RightShoulder  6.05299 9.66965 29.6139
RightArm  4.83252 -38.3936 12.0674
RightForeArm  17.1408 12.5069 -6.66658
RightHand  -0.650969 0.67515 -12.2117
LeftUpLeg  -2.57885 -4.18445 -4.39734
LeftLeg  3.70469 6.08982 3.22595
LeftFoot  -0.945429 -0.0353997 0.308049
LeftToes  1.69338e-011 3.79281e-011 -2.20049e-011
393
root  3.88804 40.0595 -67.0746 179.242 2.35669 179.363
RightUpLeg  -2.55518 -0.712726 -0.314017
RightLeg  4.13895 1.78618 -0.626667
RightFoot  -0.719132 -0.246283 2.14364
RightToes  -1.16415e-010 -3.18055e-015 -2.98177e-016
Spine  4.86565 0.0337927 0.405703
Spine1  4.61101 0.135599 -0.107266
HEad  1.3615 -2.62101 -1.2592
LeftShoulder1  -3.88251e-019 9.70628e-020 -3.87848e-018
LeftArm  -21.3324 52.9993 -57.8134
LeftForeArm  2.89441 -13.4341 -0.137095
LeftHand  -1.81843 -5.19127 20.7718
RightShoulder  6.0747 9.698 29.6739
RightArm  4.32548 -38.7626 12.5506
RightForeArm  17.8999 11.7741 -6.53521
RightHand  -0.620422 0.570868 -11.8352
LeftUpLeg  -2.48224 -4.29167 -4.61695
LeftLeg  3.75173 6.4977 3.31312
LeftFoot  -0.970442 -0.0428085 0.3859
LeftToes  1.69338e-011 3.79281e-011 -2.20049e-011
394
root  3.83898 40.057 -67.0596 179.097 2.58531 179.343
RightUpLeg  -2.52425 -0.679016 -0.374512
RightLeg  4.24595 1.96953 -0.718791
RightFoot  -0.803295 -0.259509 2.27608
RightToes  -1.16415e-010 -3.18055e-015 -2.98177e-016
Spine  4.96043 0.0105387 0.361914
Spine1  4.4915 0.145439 -0.323472
HEad  4.03555 -2.53663 -1.91692
LeftShoulder1  -3.88251e-019 9.70628e-020 -3.87848e-018
LeftArm  -21.1062 53.4489 -57.7419
LeftForeArm  2.92841 -13.8624 -0.13594
LeftHand  -1.81729 -5.10986 20.9194
RightShoulder  6.07716 9.70556 29.6714
RightArm  4.21376 -39.3502 12.8958
RightForeArm  17.7378 12.1384 -6.78473
RightHand  -0.594311 0.510392 -11.4513
LeftUpLeg  -2.37053 -4.33625 -4.74931
LeftLeg  3.87085 6.77992 3.42453
LeftFoot  -1.03473 -0.0415858 0.373052
LeftToes  1.69338e-011 3.79281e-011 -2.20049e-011
